<svg id="Binance_Smart_Chain" xmlns="http://www.w3.org/2000/svg" width="32" height="32" viewBox="0 0 32 32">
  <path id="Path_1639" data-name="Path 1639" d="M15.5,0A15.5,15.5,0,1,1,0,15.5,15.5,15.5,0,0,1,15.5,0Z" fill="#f0b90b" fill-rule="evenodd"/>
  <path id="Path_1640" data-name="Path 1640" d="M524.619,731.268l.011,4.079,3.466,2.04v2.388l-5.495-3.223v-6.478l2.018,1.193Zm0-4.079v2.377l-2.019-1.194v-2.377l2.019-1.194,2.029,1.194-2.029,1.194Zm4.925-1.194,2.019-1.194,2.029,1.194-2.029,1.194-2.019-1.194Z" transform="translate(-516.093 -715.758)" fill="#fff"/>
  <path id="Path_1641" data-name="Path 1641" d="M803.9,734.5v-2.388l2.019,1.194v2.377L803.9,734.5Zm3.466,3.741,2.019,1.194,2.029-1.194v2.377l-2.029,1.194-2.019-1.194v-2.377Zm6.942-12.248,2.019-1.194,2.029,1.194v2.377l-2.029,1.194v-2.377l-2.019-1.194Zm2.019,9.353.011-4.079,2.019-1.194v6.478l-5.495,3.223v-2.388l3.465-2.038Z" transform="translate(-793.875 -715.746)" fill="#fff"/>
  <path id="Path_1642" data-name="Path 1642" d="M1530.819,1318.788l-2.019,1.183v-2.377l2.019-1.194Z" transform="translate(-1509.806 -1300.04)" fill="#fff"/>
  <path id="Path_1643" data-name="Path 1643" d="M814.88,402.212l.011,2.388-3.476,2.04v4.089l-2.019,1.183-2.019-1.183V406.64L803.9,404.6v-2.388l2.027-1.194,3.455,2.05,3.476-2.05,2.029,1.194Zm-10.98-4.078,5.485-3.234,5.495,3.234-2.019,1.194-3.476-2.05-3.466,2.05-2.019-1.194Z" transform="translate(-793.89 -389.967)" fill="#fff"/>
</svg>
