<svg width="74" height="76" viewBox="0 0 74 76" fill="none" xmlns="http://www.w3.org/2000/svg">
<path d="M41.4235 28.5805L60.4397 9.05054L65.1876 13.9269L46.153 33.4761L46.1528 33.4763C43.721 35.9773 43.721 40.0227 46.1528 42.5237L46.153 42.5239L65.1876 62.0731L60.4397 66.9494L41.4235 47.4195L41.0653 47.7683L41.4235 47.4194C38.9809 44.911 35.0191 44.911 32.5765 47.4194L32.9347 47.7683L32.5765 47.4195L13.5604 66.9494L8.81237 62.0731L27.8471 42.5239C30.2823 40.0229 30.2823 35.9771 27.8471 33.4761L8.81236 13.9269L13.5604 9.05054L32.5765 28.5805L32.9347 28.2317L32.5765 28.5806C35.0191 31.089 38.9809 31.089 41.4235 28.5806L41.0653 28.2317L41.4235 28.5805ZM33.6492 20.1932V0.5H40.3508V20.1932H33.6492ZM40.3508 55.8035V75.5H33.6492V55.8035H40.3508ZM73.5 34.545V41.455H54.5498V34.545H73.5ZM19.8535 34.545V41.455H0.5V34.545H19.8535Z" stroke="white"/>
</svg>
