<svg width="24" height="24" viewBox="0 0 24 24" fill="none" xmlns="http://www.w3.org/2000/svg">
<g clip-path="url(#clip0_470_15926)">
<path d="M11.9795 23.73C18.4578 23.73 23.7095 18.4783 23.7095 12C23.7095 5.52172 18.4578 0.27002 11.9795 0.27002C5.50121 0.27002 0.249512 5.52172 0.249512 12C0.249512 18.4783 5.50121 23.73 11.9795 23.73Z" fill="#FF0420"/>
<path d="M8.18392 15.6564C7.96552 15.6564 7.74592 15.6516 7.52992 15.6108C7.07872 15.5256 6.65512 15.3744 6.29752 15.072C5.99752 14.8176 5.81752 14.4924 5.73712 14.1084C5.68912 13.8792 5.68912 13.65 5.70712 13.4184C5.73352 13.0944 5.81392 12.7788 5.87632 12.4608C5.89312 12.3768 5.91952 12.294 5.93512 12.2124C5.95552 12.1032 5.97832 11.9952 6.00352 11.8872C6.03112 11.766 6.05632 11.6436 6.08992 11.5236C6.14152 11.34 6.18712 11.154 6.26272 10.9776C6.34672 10.7832 6.42712 10.5876 6.54352 10.4088C6.60592 10.3128 6.66712 10.2144 6.74152 10.1292C6.78352 10.0812 6.82672 10.032 6.86872 9.98521C6.92512 9.92281 6.98032 9.86041 7.04392 9.80641C7.16392 9.70321 7.28272 9.59881 7.42312 9.52081C7.52392 9.46561 7.61872 9.40081 7.72552 9.35641C7.86832 9.29641 8.00992 9.23401 8.16352 9.19921C8.25232 9.17881 8.33992 9.14281 8.43112 9.12961C8.59312 9.10561 8.75512 9.07681 8.91952 9.06481C9.11632 9.05041 9.31312 9.03721 9.50992 9.05401C9.67312 9.06841 9.83872 9.08161 9.99832 9.11521C10.1963 9.15721 10.3931 9.21241 10.5791 9.29881C10.7387 9.37201 10.8923 9.45121 11.0327 9.55681C11.1299 9.63001 11.2139 9.71761 11.2991 9.80401C11.4155 9.92281 11.5031 10.0608 11.5763 10.2084C11.6663 10.3896 11.7203 10.5804 11.7455 10.782C11.7623 10.9128 11.7791 11.0424 11.7683 11.1744C11.7527 11.3496 11.7311 11.5224 11.6987 11.6964C11.6663 11.868 11.6423 12.042 11.6075 12.2136C11.4947 12.7656 11.3915 13.32 11.1683 13.8432C10.9547 14.3448 10.6547 14.7816 10.2071 15.1056C9.84712 15.366 9.44032 15.5112 9.00712 15.5904C8.73472 15.6408 8.46112 15.6588 8.18512 15.6588L8.18392 15.6564ZM8.30392 14.328C8.36872 14.328 8.43472 14.328 8.49952 14.328C8.51512 14.328 8.53072 14.3208 8.54632 14.3172C9.03712 14.2344 9.36712 13.9476 9.56872 13.5024C9.64312 13.338 9.68872 13.1664 9.72952 12.9912C9.79432 12.7152 9.86272 12.438 9.91792 12.1596C9.94792 12.0132 9.97912 11.8656 10.0031 11.718C10.0307 11.5536 10.0607 11.388 10.0655 11.22C10.0691 11.0724 10.0547 10.9224 9.99952 10.788C9.92752 10.6152 9.79552 10.4868 9.61072 10.4256C9.52312 10.3968 9.43192 10.3824 9.33952 10.3716C9.19912 10.356 9.06232 10.368 8.92312 10.3848C8.76952 10.404 8.63152 10.4628 8.49592 10.5336C8.41312 10.5768 8.32792 10.6248 8.26792 10.6896C8.17672 10.788 8.09032 10.8924 8.02072 11.01C7.93192 11.1564 7.87312 11.316 7.82272 11.4768C7.76392 11.6676 7.72552 11.8656 7.67992 12.0612C7.65592 12.1596 7.62832 12.2568 7.61152 12.3564C7.57912 12.5544 7.53592 12.75 7.49632 12.9468C7.44712 13.1856 7.41232 13.4244 7.43752 13.6692C7.47112 13.9908 7.65592 14.2104 7.96792 14.2956C8.07952 14.3268 8.19232 14.3292 8.30512 14.328H8.30392Z" fill="white"/>
<path d="M17.5415 9.50403C17.6327 9.57003 17.7275 9.63123 17.8115 9.70683C17.9627 9.84363 18.0815 10.0032 18.1523 10.1928C18.2447 10.4412 18.2855 10.6992 18.2507 10.9644C18.2339 11.0892 18.2207 11.2164 18.1811 11.3376C18.1763 11.3508 18.1799 11.3652 18.1787 11.3796C18.1715 11.3796 18.1667 11.3832 18.1691 11.3916C18.0995 11.676 17.9999 11.9472 17.8463 12.2004C17.5151 12.7476 17.0207 13.0608 16.4123 13.2132C16.2011 13.266 15.9875 13.2996 15.7703 13.3128C15.2555 13.3416 14.7395 13.3212 14.2247 13.3248C14.1611 13.3248 14.1407 13.3428 14.1275 13.404C13.9955 14.046 13.8611 14.6868 13.7255 15.3288C13.6931 15.4812 13.5887 15.5676 13.4315 15.5676C13.0259 15.5676 12.6203 15.5676 12.2147 15.5676C12.0503 15.5676 11.9831 15.4824 12.0155 15.3204C12.0419 15.1872 12.0731 15.0552 12.0995 14.922C12.1307 14.7576 12.1643 14.592 12.2003 14.4288C12.2375 14.262 12.2711 14.0928 12.3107 13.926C12.3623 13.7112 12.4091 13.4952 12.4487 13.278C12.4775 13.1232 12.5111 12.9684 12.5423 12.8148C12.5771 12.6468 12.6179 12.4788 12.6503 12.3108C12.6815 12.1524 12.7187 11.9952 12.7499 11.8368C12.7727 11.7216 12.8051 11.6076 12.8267 11.4924C12.8675 11.2812 12.9155 11.07 12.9575 10.8588C12.9911 10.6908 13.0307 10.524 13.0655 10.356C13.1147 10.1196 13.1687 9.88443 13.2143 9.64803C13.2347 9.54243 13.2563 9.43683 13.2851 9.33243C13.3151 9.22683 13.4327 9.14163 13.5575 9.14043C13.6823 9.13923 13.8059 9.14043 13.9307 9.14043C14.6423 9.14043 15.3539 9.13923 16.0655 9.14283C16.2251 9.14283 16.3859 9.16083 16.5455 9.17763C16.6211 9.18603 16.6955 9.20883 16.7723 9.21123C16.7723 9.22803 16.7831 9.22803 16.7951 9.22563C16.9535 9.24603 17.0987 9.30723 17.2463 9.36243C17.2883 9.37803 17.3291 9.39483 17.3699 9.41163C17.3699 9.41883 17.3723 9.42483 17.3807 9.42003C17.3855 9.42123 17.3903 9.42243 17.3939 9.42483C17.3939 9.43203 17.3951 9.43803 17.4047 9.43323L17.4179 9.43803C17.4179 9.44523 17.4203 9.45123 17.4287 9.44643C17.4611 9.46443 17.4935 9.48243 17.5259 9.49923C17.5283 9.50523 17.5307 9.51123 17.5391 9.50763L17.5415 9.50403ZM15.0527 12.0612C15.2387 12.054 15.4631 12.0768 15.6851 12.0396C15.8771 12.0084 16.0439 11.9208 16.1879 11.7984C16.2995 11.7048 16.3811 11.5812 16.4375 11.4456C16.5227 11.2392 16.5539 11.0244 16.5119 10.806C16.4807 10.644 16.3823 10.5288 16.2203 10.4748C16.0907 10.4316 15.9575 10.4172 15.8219 10.416C15.5771 10.416 15.3323 10.416 15.0875 10.416C14.9855 10.416 14.8835 10.416 14.7815 10.416C14.7587 10.416 14.7335 10.4112 14.7275 10.4484C14.7059 10.5708 14.6831 10.6932 14.6555 10.8144C14.6087 11.028 14.5619 11.2404 14.5199 11.4552C14.4839 11.64 14.4443 11.826 14.3987 12.0084C14.3843 12.0672 14.4071 12.0624 14.4467 12.0612C14.6363 12.0612 14.8259 12.0612 15.0527 12.0612Z" fill="white"/>
</g>
<defs>
<clipPath id="clip0_470_15926">
<rect width="24" height="24" fill="white"/>
</clipPath>
</defs>
</svg>
