<svg width="24" height="24" viewBox="0 0 24 24" fill="none" xmlns="http://www.w3.org/2000/svg">
<path d="M11.9431 13.5908C12.8204 13.5908 13.5317 12.8795 13.5317 12.0022C13.5317 11.1248 12.8204 10.4136 11.9431 10.4136C11.0657 10.4136 10.3545 11.1248 10.3545 12.0022C10.3545 12.8795 11.0657 13.5908 11.9431 13.5908Z" stroke="#1f1379" stroke-width="1.5" stroke-linecap="round" stroke-linejoin="round"/>
<path d="M18.2966 9.88373C19.174 9.88373 19.8852 9.17249 19.8852 8.29514C19.8852 7.41778 19.174 6.70654 18.2966 6.70654C17.4192 6.70654 16.708 7.41778 16.708 8.29514C16.708 9.17249 17.4192 9.88373 18.2966 9.88373Z" stroke="#1f1379" stroke-width="1.5" stroke-linecap="round" stroke-linejoin="round"/>
<path d="M18.2966 17.2973C19.174 17.2973 19.8852 16.5861 19.8852 15.7087C19.8852 14.8314 19.174 14.1201 18.2966 14.1201C17.4192 14.1201 16.708 14.8314 16.708 15.7087C16.708 16.5861 17.4192 17.2973 18.2966 17.2973Z" stroke="#1f1379" stroke-width="1.5" stroke-linecap="round" stroke-linejoin="round"/>
<path d="M13.3135 12.8013L16.9302 14.9088" stroke="#1f1379" stroke-width="1.5" stroke-linecap="round" stroke-linejoin="round"/>
<path d="M16.9249 9.09448L13.3135 11.202" stroke="#1f1379" stroke-width="1.5" stroke-linecap="round" stroke-linejoin="round"/>
<path d="M5.58817 9.88373C4.71081 9.88373 3.99957 9.17249 3.99957 8.29514C3.99957 7.41778 4.71081 6.70654 5.58817 6.70654C6.46552 6.70654 7.17676 7.41778 7.17676 8.29514C7.17676 9.17249 6.46552 9.88373 5.58817 9.88373Z" stroke="#1f1379" stroke-width="1.5" stroke-linecap="round" stroke-linejoin="round"/>
<path d="M5.58817 17.2973C4.71081 17.2973 3.99957 16.5861 3.99957 15.7087C3.99957 14.8314 4.71081 14.1201 5.58817 14.1201C6.46552 14.1201 7.17676 14.8314 7.17676 15.7087C7.17676 16.5861 6.46552 17.2973 5.58817 17.2973Z" stroke="#1f1379" stroke-width="1.5" stroke-linecap="round" stroke-linejoin="round"/>
<path d="M10.5713 12.8013L6.95459 14.9088" stroke="#1f1379" stroke-width="1.5" stroke-linecap="round" stroke-linejoin="round"/>
<path d="M6.95989 9.09448L10.5713 11.202" stroke="#1f1379" stroke-width="1.5" stroke-linecap="round" stroke-linejoin="round"/>
<path d="M10.6192 5.96464C10.1805 5.20487 10.4407 4.23327 11.2005 3.79452C11.9603 3.35577 12.9319 3.61601 13.3706 4.37578C13.8094 5.13555 13.5491 6.10714 12.7894 6.54589C12.0296 6.98464 11.058 6.72441 10.6192 5.96464Z" stroke="#1f1379" stroke-width="1.5" stroke-linecap="round" stroke-linejoin="round"/>
<path d="M11.9886 6.75771L11.9435 10.4137" stroke="#1f1379" stroke-width="1.5" stroke-linecap="round" stroke-linejoin="round"/>
<path d="M10.6192 18.0354C10.1805 18.7951 10.4407 19.7667 11.2005 20.2055C11.9603 20.6442 12.9319 20.384 13.3706 19.6242C13.8094 18.8645 13.5491 17.8929 12.7894 17.4541C12.0296 17.0154 11.058 17.2756 10.6192 18.0354Z" stroke="#1f1379" stroke-width="1.5" stroke-linecap="round" stroke-linejoin="round"/>
<path d="M11.9884 17.2424L11.9883 13.8556" stroke="#1f1379" stroke-width="1.5" stroke-linecap="round" stroke-linejoin="round"/>
</svg>
