<svg width="24" height="24" viewBox="0 0 24 24" fill="none" xmlns="http://www.w3.org/2000/svg">
<path d="M20.9979 11.5008C20.9979 11.2827 20.8573 11.15 20.6227 11.1437C20.3406 11.1365 20.0586 11.1419 19.7761 11.1406C19.7175 11.1406 19.659 11.1352 19.5858 11.1312C19.5858 11.0539 19.5858 10.9935 19.5858 10.9332C19.5858 10.4425 19.588 9.95182 19.584 9.46113C19.5831 9.33957 19.5778 9.21399 19.5485 9.09691C19.4257 8.60666 19.0146 8.28892 18.5037 8.28266C18.1622 8.27864 17.8207 8.28177 17.4606 8.28177C17.4606 8.19775 17.4606 8.13205 17.4606 8.06636C17.4575 7.50908 17.4717 6.95046 17.4455 6.39407C17.4202 5.85645 16.9528 5.4386 16.4166 5.43369C16.0959 5.43056 15.7744 5.42654 15.4542 5.43637C15.3367 5.43994 15.2781 5.39436 15.224 5.29783C15.0284 4.9488 14.8258 4.6038 14.6248 4.2579C14.4585 3.97233 14.2905 3.92987 14.0075 4.10104C13.3205 4.51665 12.6353 4.93495 11.9448 5.34475C11.8557 5.39749 11.7399 5.42922 11.6366 5.42966C9.67809 5.43458 7.71961 5.4319 5.76112 5.43413C4.99476 5.43503 4.32065 5.93376 4.08338 6.66891C4.051 6.76857 4.0275 6.87091 4 6.97235V17.4798C4.00931 17.4932 4.02306 17.5053 4.02661 17.52C4.2457 18.4652 4.90163 18.9984 5.86402 18.9988C10.0524 19.0006 14.2403 19.0002 18.4287 18.9988C19.149 18.9988 19.5831 18.5582 19.5858 17.8315C19.588 17.3297 19.5858 16.8278 19.5867 16.3259C19.5867 16.2669 19.5916 16.2079 19.5947 16.1405C19.9552 16.1405 20.2981 16.1431 20.6409 16.1396C20.8538 16.1373 20.9979 15.9961 20.9983 15.7834C21.0006 14.356 21.0006 12.9286 20.9983 11.5012L20.9979 11.5008ZM16.4348 6.16034C16.6046 6.16973 16.7354 6.28681 16.7403 6.45798C16.7532 6.92722 16.7448 7.39691 16.7186 7.87464C16.3922 7.3111 16.0662 6.74756 15.7243 6.15721C15.9851 6.15721 16.2108 6.14783 16.4348 6.16034ZM14.145 4.85853C14.804 5.99722 15.4573 7.12564 16.1208 8.27193H8.5006C10.4054 7.11983 12.2717 5.99097 14.1445 4.85853H14.145ZM5.69593 6.15677C5.75669 6.15498 5.81745 6.15006 5.87821 6.15006C7.39275 6.15006 8.90773 6.15006 10.4223 6.15006H10.5504C10.5535 6.16258 10.5571 6.17509 10.5602 6.18716C9.93177 6.56747 9.30289 6.94777 8.67445 7.32809C8.18661 7.62304 7.70054 7.91978 7.20958 8.20937C7.13774 8.25182 7.04593 8.27774 6.963 8.27908C6.56518 8.28623 6.16692 8.28489 5.76911 8.28132C5.2072 8.27596 4.76193 7.83844 4.72068 7.3044C4.66968 6.64254 5.19966 6.17107 5.69593 6.15677ZM18.8735 17.9053C18.8713 18.1359 18.725 18.2722 18.4944 18.2833C18.4669 18.2847 18.4389 18.2838 18.4114 18.2838C14.2279 18.2838 10.0449 18.2838 5.86136 18.2838C5.29811 18.2838 4.88522 17.9902 4.75261 17.4879C4.72334 17.3766 4.71359 17.2568 4.71359 17.1406C4.71137 14.369 4.71181 11.5973 4.71226 8.82519C4.71226 8.78184 4.71669 8.73849 4.71979 8.67593C4.75527 8.69157 4.77967 8.69827 4.79962 8.71168C5.12959 8.92977 5.49458 9.01066 5.88575 9.01021C9.38848 9.00842 12.8912 9.00931 16.394 9.00931C17.08 9.00931 17.7661 9.00887 18.4522 9.00931C18.7458 9.00931 18.8758 9.1407 18.8766 9.43834C18.878 9.95718 18.8771 10.4756 18.8766 10.9944C18.8766 11.0378 18.8713 11.0807 18.8669 11.1415C18.7946 11.1415 18.7294 11.1415 18.6642 11.1415C18.0721 11.1459 17.4792 11.1307 16.8885 11.1589C15.813 11.2103 14.8337 12.1179 14.6625 13.1927C14.4297 14.6541 15.3841 15.9501 16.837 16.1284C17.0991 16.1606 17.3674 16.1396 17.6331 16.1405C18.0415 16.1418 18.4496 16.1405 18.8766 16.1405C18.8766 16.7456 18.8802 17.3252 18.8749 17.9048L18.8735 17.9053ZM20.279 15.412C20.228 15.4169 20.1854 15.4241 20.1428 15.4241C19.1534 15.4245 18.1639 15.4232 17.175 15.425C16.613 15.4263 16.1323 15.2364 15.7677 14.8007C15.3251 14.2715 15.2165 13.6646 15.456 13.0189C15.6928 12.3794 16.166 12.0013 16.837 11.8878C16.967 11.8659 17.1009 11.8587 17.2326 11.8583C18.1835 11.8561 19.1343 11.8569 20.0856 11.8569H20.2794V15.4116L20.279 15.412ZM17.1013 12.5662C16.5172 12.568 16.0396 13.0542 16.0414 13.6454C16.0431 14.2385 16.5199 14.7166 17.108 14.7144C17.6943 14.7122 18.175 14.2268 18.1728 13.6396C18.1706 13.0551 17.681 12.5644 17.1018 12.5666L17.1013 12.5662ZM17.0987 13.9989C16.9164 13.9954 16.751 13.8255 16.7514 13.6423C16.7514 13.4546 16.912 13.2946 17.1009 13.2933C17.296 13.2919 17.4477 13.4403 17.4508 13.6356C17.4539 13.834 17.2907 14.0025 17.0987 13.9985V13.9989Z" fill="#F55F27"/>
</svg>
